<mxfile host="Electron" modified="2024-10-21T13:00:08.299Z" agent="Mozilla/5.0 (Windows NT 10.0; Win64; x64) AppleWebKit/537.36 (KHTML, like Gecko) draw.io/24.2.5 Chrome/120.0.6099.109 Electron/28.1.0 Safari/537.36" etag="LctD5cts1AQb0O1SRXnw" version="24.2.5" type="device">
  <diagram name="第 1 页" id="wcrWByC6UWI4JJbCoVP0">
    <mxGraphModel dx="649" dy="445" grid="1" gridSize="10" guides="1" tooltips="1" connect="1" arrows="1" fold="1" page="1" pageScale="1" pageWidth="827" pageHeight="1169" math="0" shadow="0">
      <root>
        <mxCell id="0" />
        <mxCell id="1" parent="0" />
        <mxCell id="0-_XrfYXboivka8KMVaG-1" value="DiskBufferPool" style="rounded=0;whiteSpace=wrap;html=1;fontSize=13;fontStyle=1;fillColor=#dae8fc;strokeColor=#6c8ebf;" parent="1" vertex="1">
          <mxGeometry x="170" y="320" width="100" height="50" as="geometry" />
        </mxCell>
        <mxCell id="0-_XrfYXboivka8KMVaG-2" value=".table" style="rounded=0;whiteSpace=wrap;html=1;fontSize=13;fontStyle=1;fillColor=#f5f5f5;fontColor=#333333;strokeColor=#666666;" parent="1" vertex="1">
          <mxGeometry x="100" y="400" width="100" height="50" as="geometry" />
        </mxCell>
        <mxCell id="0-_XrfYXboivka8KMVaG-3" value=".data" style="rounded=0;whiteSpace=wrap;html=1;fontSize=13;fontStyle=1;fillColor=#f5f5f5;fontColor=#333333;strokeColor=#666666;" parent="1" vertex="1">
          <mxGeometry x="240" y="400" width="100" height="50" as="geometry" />
        </mxCell>
        <mxCell id="0-_XrfYXboivka8KMVaG-4" value="RecordManager" style="rounded=0;whiteSpace=wrap;html=1;fontSize=13;fontStyle=1;fillColor=#dae8fc;strokeColor=#6c8ebf;" parent="1" vertex="1">
          <mxGeometry x="90" y="250" width="100" height="50" as="geometry" />
        </mxCell>
      </root>
    </mxGraphModel>
  </diagram>
</mxfile>
